<svg xmlns="http://www.w3.org/2000/svg" viewBox="0 0 200 80"><defs><style>.cls-1{fill:#fff;}</style></defs><title>Asset 9</title><g id="Layer_2" data-name="Layer 2"><g id="Layer_1-2" data-name="Layer 1"><path class="cls-1" d="M18.89,35.58h.77l2.38,0,1.18-.07a15.48,15.48,0,0,0,2.31-.32,9.43,9.43,0,0,0,1.91-.71,6.79,6.79,0,0,0,4-6.45,7.86,7.86,0,0,0-.53-2.8,12.37,12.37,0,0,0-1.72-2.91c-.54-.71-1.28-1.58-2.21-2.62-.45-.5-.94-1-1.48-1.62l-.25-.27a18.87,18.87,0,0,1-1.64-2c-.16-.23-.31-.45-.42-.65A4.35,4.35,0,0,1,22.6,13q0-2.77,3.49-5.4A16.31,16.31,0,0,1,29,5.91c.46-.21.93-.42,1.44-.62a17.39,17.39,0,0,1,2.12-.66,9.89,9.89,0,0,1,2.26-.32,4.43,4.43,0,0,1,.78.07c.79.16,1.2.59,1.2,1.29a3.47,3.47,0,0,1-.26,1.2c-.17.45-.55,1.27-1.12,2.46l-.84,1.74-.49,1a2.84,2.84,0,0,0-.31,1.29,1.77,1.77,0,0,0,.68,1.4,2.5,2.5,0,0,0,1.72.59,2.34,2.34,0,0,0,1.44-.41,5.59,5.59,0,0,0,1.22-1.65l.44-.79c.61-1.1,1.23-2.33,1.84-3.68a9.37,9.37,0,0,0,.92-3.63,4.39,4.39,0,0,0-.89-2.72A5.69,5.69,0,0,0,38.65.63L38.49.58A9.9,9.9,0,0,0,35.91,0c-.36,0-.73,0-1.12,0A15.87,15.87,0,0,0,33,.12a21.65,21.65,0,0,0-7.8,2.59,18.83,18.83,0,0,0-4.31,3.1,13.07,13.07,0,0,0-2.71,3.71,9.2,9.2,0,0,0-.94,4.06,7.26,7.26,0,0,0,.87,3.52,24.87,24.87,0,0,0,3.25,4.21l.15.17,1.6,1.74c.77.85,1.28,1.44,1.51,1.75.09.11.16.21.24.32a5.34,5.34,0,0,1,1.31,3c0,1.43-1,2.29-3,2.56-.26,0-.54.06-.84.07L20.69,31l-1.81,0h-.57l-13.83,0a9.38,9.38,0,0,0-3,.32A2.21,2.21,0,0,0,0,33.52a1.84,1.84,0,0,0,1.08,1.71,6.83,6.83,0,0,0,2.84.39l13.39,0Z"/><path class="cls-1" d="M50.41,16.9a6.34,6.34,0,0,0-1.53-.56,7.67,7.67,0,0,0-1.91-.2,9.11,9.11,0,0,0-4.21,1.07,12.21,12.21,0,0,0-3.71,3,14.88,14.88,0,0,0-2.56,4.27,13.2,13.2,0,0,0-.9,4.78,6.68,6.68,0,0,0,1.78,4.84,5.88,5.88,0,0,0,2.86,1.59,7.68,7.68,0,0,0,1.84.21A9.42,9.42,0,0,0,47.55,34a14.2,14.2,0,0,0,5.84-11.37,7.34,7.34,0,0,0-.78-3.51A5.32,5.32,0,0,0,50.41,16.9ZM41.29,31a2.41,2.41,0,0,1-.57-1.7,11.72,11.72,0,0,1,1.35-4.86,11.12,11.12,0,0,1,2.12-3.14,3.32,3.32,0,0,1,2.24-1h0a1.72,1.72,0,0,1,1.41.59,2.73,2.73,0,0,1,.5,1.76,11.17,11.17,0,0,1-1.58,5.32q-2,3.66-4,3.66a2,2,0,0,1-1.25-.38A1.49,1.49,0,0,1,41.29,31Z"/><path class="cls-1" d="M64.62,16.6a2.42,2.42,0,0,0-1.6-.51,2.3,2.3,0,0,0-1.59.56A7.68,7.68,0,0,0,60,18.78l-6.66,13a5.9,5.9,0,0,0-.78,2.13,1.74,1.74,0,0,0,.63,1.38,2.61,2.61,0,0,0,3.15,0,8.33,8.33,0,0,0,1.43-2.17l5-9.79a19.39,19.39,0,0,1,3.08-2.05,5.9,5.9,0,0,1,2.39-.83c.56,0,.84.24.84.73a10.25,10.25,0,0,1-1.3,2.84q-2.16,3.9-2.71,5.22a7.56,7.56,0,0,0-.6,2.52,3.6,3.6,0,0,0,1.3,2.91,3.51,3.51,0,0,0,.59.42,4.76,4.76,0,0,0,1.88.63,7.08,7.08,0,0,0,.82,0,12.83,12.83,0,0,0,6.13-2c.54-.31,1.09-.66,1.66-1A5.69,5.69,0,0,0,77.78,34c.11.12.23.22.34.32a6.41,6.41,0,0,0,4.36,1.49,8.42,8.42,0,0,0,1-.07,9,9,0,0,0,2.35-.63A11.26,11.26,0,0,0,88,33.91l.72-.56A13.7,13.7,0,0,0,92.21,29a13.55,13.55,0,0,0,1.59-6.41c0-.19,0-.36,0-.53A7.34,7.34,0,0,0,93,19h0a5.25,5.25,0,0,0-1.33-1.62,4.93,4.93,0,0,0-.88-.61A7.22,7.22,0,0,0,87.38,16a9.24,9.24,0,0,0-4.21,1.08,12.21,12.21,0,0,0-3.71,3,14.75,14.75,0,0,0-2.56,4.27,13.52,13.52,0,0,0-.47,1.49A12.49,12.49,0,0,0,76,28.42l-.76.52c-.45.33-.84.62-1.2.87s-.82.56-1.12.74a8.34,8.34,0,0,1-1.33.72,2.52,2.52,0,0,1-.95.21.79.79,0,0,1-.9-.89,4.25,4.25,0,0,1,.66-1.71l1.18-2.16,1.3-2.34a10.52,10.52,0,0,0,1.61-4.87A3.1,3.1,0,0,0,73.41,17a4.32,4.32,0,0,0-2.91-.94,9.26,9.26,0,0,0-5.27,2v-.18A1.68,1.68,0,0,0,64.62,16.6Zm23.95,7.8a13.33,13.33,0,0,1-1.36,3.44c-.23.41-.46.78-.69,1.13-1.11,1.67-2.21,2.53-3.3,2.53a2,2,0,0,1-1.4-.51l-.12-.1a2.41,2.41,0,0,1-.57-1.7,8.82,8.82,0,0,1,.44-2.56,17.32,17.32,0,0,1,.91-2.3,11.12,11.12,0,0,1,2.12-3.14,3.28,3.28,0,0,1,2.24-1,1.77,1.77,0,0,1,1.45.6,2.71,2.71,0,0,1,.5,1.76A8.3,8.3,0,0,1,88.57,24.4Z"/><path class="cls-1" d="M114.91,29.24a7.41,7.41,0,0,0-.52,2.6,3.53,3.53,0,0,0,1.24,2.82,4.91,4.91,0,0,0,3.29,1,9.38,9.38,0,0,0,2.87-.57A18.74,18.74,0,0,0,124.44,34l.75-.41c.32-.18.63-.37.94-.57a4.68,4.68,0,0,0,.89,1.2c.11.11.23.21.35.31a5.7,5.7,0,0,0,3.69,1.13,7.62,7.62,0,0,0,2.74-.48,7.07,7.07,0,0,0,.95-.44A19.28,19.28,0,0,0,137,33.36a4.54,4.54,0,0,0,.19.62,2.4,2.4,0,0,0,1.45,1.39,4.47,4.47,0,0,0,1.64.27,10.13,10.13,0,0,0,3.52-.65,25.84,25.84,0,0,0,4.47-2.34c2.41-1.51,3.62-2.8,3.61-3.87a1.44,1.44,0,0,0-.59-1.14,2.06,2.06,0,0,0-1.35-.49,2,2,0,0,0-1,.24c-.3.16-.91.56-1.84,1.19-1.58,1.09-2.69,1.82-3.34,2.18a3.49,3.49,0,0,1-1.6.54c-.68,0-1-.31-1-.94a4.88,4.88,0,0,1,.72-1.85l.45-.83c.14-.27.28-.53.41-.8l1-1.81a5.59,5.59,0,0,0,.74-2.13,1.54,1.54,0,0,0-.06-.43,1.64,1.64,0,0,0-.55-.8,2.24,2.24,0,0,0-1-.42,2.72,2.72,0,0,0-2.32.58h0A7.94,7.94,0,0,0,139,24.13l-.89,1.74c-.06.07-.35.66-.87,1.76l-.26.58a17,17,0,0,1-2.7,2.46,3.81,3.81,0,0,1-2.16.76,1.58,1.58,0,0,1-.83-.22A1.94,1.94,0,0,1,131,31a2,2,0,0,1-.43-1.3,5.47,5.47,0,0,1,1-2.87c.11-.18.24-.36.37-.54a14.61,14.61,0,0,1,3.74-3.47,20.12,20.12,0,0,1,3.89-2c.54-.21,1.12-.39,1.72-.57s1.49-.38,2.31-.54l.68-.13a8.49,8.49,0,0,0,1.62-.4,3.08,3.08,0,0,0,.68-.33,1.53,1.53,0,0,0,.65-1.33,1.86,1.86,0,0,0-.2-.87,2,2,0,0,0-1.64-.95,4.92,4.92,0,0,0-.8-.06,12.19,12.19,0,0,0-1.28.08c-.53.07-1.1.16-1.73.29A27.9,27.9,0,0,0,138,17a22.25,22.25,0,0,0-3.22,1.43,19.8,19.8,0,0,0-6.7,5.45,15.2,15.2,0,0,0-1,1.53,10.9,10.9,0,0,0-1.22,2.91l-.76.54-1.43,1c-.64.44-1.15.76-1.52,1a3.52,3.52,0,0,1-1.62.52.9.9,0,0,1-.66-.28.85.85,0,0,1-.27-.61,2.25,2.25,0,0,1,.21-.9c.15-.31.67-1.3,1.57-2.95q1.94-3.54,2.44-4.79a6.51,6.51,0,0,0,.5-2.52,3,3,0,0,0-1.16-2.39,4.54,4.54,0,0,0-3-.94,11.69,11.69,0,0,0-6.31,2.23,2.66,2.66,0,0,0-1.16-1.62,3.44,3.44,0,0,0-.85-.38,4.45,4.45,0,0,0-1.41-.2l-.59,0a7.51,7.51,0,0,0-2.41.76,12.38,12.38,0,0,0-1.75,1s0-.05,0-.08a1.93,1.93,0,0,0-.65-1.24,1.86,1.86,0,0,0-.67-.35,3,3,0,0,0-.88-.12,2.37,2.37,0,0,0-1.36.39,1.66,1.66,0,0,0-.21.16,7.92,7.92,0,0,0-1.43,2.14L93.77,31.74a5.69,5.69,0,0,0-.78,2.1A1.77,1.77,0,0,0,93.36,35a1.66,1.66,0,0,0,.26.27,2.35,2.35,0,0,0,1.45.53h.13a2.28,2.28,0,0,0,1.58-.54,8.2,8.2,0,0,0,1.42-2.14l1.19-2.32,3.8-7.45.15-.1c.6-.47,1.16-.87,1.66-1.21a10.38,10.38,0,0,1,2.74-1.45,2.34,2.34,0,0,1,.54-.09c.47,0,.7.2.7.6a7.8,7.8,0,0,1-.92,2.34l-4.27,8.32a5.81,5.81,0,0,0-.75,2.11,1.82,1.82,0,0,0,.29,1,1.76,1.76,0,0,0,.34.39,2.33,2.33,0,0,0,1.58.54,2.26,2.26,0,0,0,1.58-.54A8.53,8.53,0,0,0,108.26,33l5.3-10.37q3-2.24,4.46-2.24a.76.76,0,0,1,.55.17.51.51,0,0,1,.2.4c0,.53-.67,2-2,4.37A33.5,33.5,0,0,0,114.91,29.24Z"/><path class="cls-1" d="M42.78,53.91a18.33,18.33,0,0,0-2.34,8.75,10.62,10.62,0,0,0,1.26,5.27,8.37,8.37,0,0,0,3.61,3.43,12,12,0,0,0,5.51,1.18q7.29,0,13.88-6.13a31,31,0,0,0,4.83-5.68,28.75,28.75,0,0,0,2.34-4.26c.32-.73.62-1.47.87-2.21a2.81,2.81,0,0,0,.1-.31,19.09,19.09,0,0,0,1-6,13,13,0,0,0-.8-4.63,10.34,10.34,0,0,0-2.29-3.63,9.77,9.77,0,0,0-3-2.06l-.59-.26A11.5,11.5,0,0,0,65.66,37a13.77,13.77,0,0,0-3-.33,10.81,10.81,0,0,0-4.6.83,2.5,2.5,0,0,0-1.71,2.24A1.9,1.9,0,0,0,56.93,41a1.8,1.8,0,0,0,1.33.57,6.84,6.84,0,0,0,1.41-.16,13.07,13.07,0,0,1,2.9-.37,6,6,0,0,1,4.58,1.75,6.63,6.63,0,0,1,1.72,4.8,17.71,17.71,0,0,1-1.58,7.08,26.64,26.64,0,0,1-4.24,6.76,23.14,23.14,0,0,1-5.84,5,12.25,12.25,0,0,1-6.11,1.87A5.38,5.38,0,0,1,47,66.61a6.15,6.15,0,0,1-1.62-4.36,12.88,12.88,0,0,1,.94-4.44,19.44,19.44,0,0,1,2.48-4.66,19.16,19.16,0,0,1,2.05-2.49,21.45,21.45,0,0,1,2.35-2.07,26.23,26.23,0,0,1,3.08-2,6.85,6.85,0,0,0,1.64-1.19,1.64,1.64,0,0,0,.45-1.13,1.6,1.6,0,0,0-.62-1.38,3.72,3.72,0,0,0-2.06-.43H55l-13.83,0h-.6a11.75,11.75,0,0,0-1.73.1,3,3,0,0,0-.88.22,2.17,2.17,0,0,0-1,.8,2.08,2.08,0,0,0-.38,1.2,1.58,1.58,0,0,0,.79,1.5,3.56,3.56,0,0,0,1,.33,10.23,10.23,0,0,0,1.65.16h.61l8.2,0A20.89,20.89,0,0,0,42.78,53.91Z"/><path class="cls-1" d="M99,52a2.82,2.82,0,0,0,2.17-.88,3.09,3.09,0,0,0,.81-2.17,2.09,2.09,0,0,0-.72-1.66,2.64,2.64,0,0,0-1.81-.62,3.07,3.07,0,0,0-1.67.45,3.18,3.18,0,0,0-.47.37,2.82,2.82,0,0,0-.84,2.13,3.16,3.16,0,0,0,0,.32,2.27,2.27,0,0,0,.68,1.4A2.52,2.52,0,0,0,99,52Z"/><path class="cls-1" d="M94.93,53.3a8.48,8.48,0,0,0-1.33,2.08l-3.44,6.77L89.2,64c-.15.29-.28.57-.41.85l-.45.25-1.2.67-.94.48c-.57.28-1.14.54-1.71.79l-1.14.47-.46.17a16.35,16.35,0,0,1-2.35.69,5.46,5.46,0,0,1-1.06.12,2,2,0,0,1-1-.22.67.67,0,0,1-.11-.07.94.94,0,0,1-.41-.79c0-.56.59-1.33,1.78-2.31L80,65l2.07-1.77c.45-.38.86-.75,1.23-1.1a15.57,15.57,0,0,0,2.19-2.35,4.72,4.72,0,0,0,1-2.76,3.76,3.76,0,0,0-.27-1.37A3.56,3.56,0,0,0,85,54.15L84.8,54a6.24,6.24,0,0,0-3.67-1,5.74,5.74,0,0,0-.6,0l.09-.19A5,5,0,0,0,81.3,51a1.77,1.77,0,0,0-.22-.86,1.92,1.92,0,0,0-.41-.5,2.34,2.34,0,0,0-1.21-.5l-.34,0a2.25,2.25,0,0,0-1.55.51,6.34,6.34,0,0,0-1.06,1.49c-.12.21-.24.44-.37.69l-1.5,2.93-.16.3a6.49,6.49,0,0,0-.72,2,.43.43,0,0,0,0,.11s0,.09,0,.13a1.77,1.77,0,0,0,.61,1.25,2.12,2.12,0,0,0,.72.4,2.57,2.57,0,0,0,.85.13,2.36,2.36,0,0,0,1.33-.38c.07,0,.15-.09.22-.15a5.31,5.31,0,0,0,1.23-1.79,4.89,4.89,0,0,1,1.75.26.85.85,0,0,1,.51.84,1.28,1.28,0,0,1-.38.92c-.26.28-1,1-2.36,2S76,62.67,75.12,63.42c-.39.36-.75.7-1,1a5.42,5.42,0,0,0-1.75,3.69,4.94,4.94,0,0,0,.17,1.18,3.73,3.73,0,0,0,1.49,2,6.37,6.37,0,0,0,2.82,1,11.34,11.34,0,0,0,1.7.12h.29a17,17,0,0,0,2.13-.16c.45-.06.89-.14,1.34-.24s1-.21,1.42-.35c.31-.09.62-.2.93-.3.54-.19,1.09-.39,1.66-.63l.85-.38c.3-.14.61-.27.92-.43a3.42,3.42,0,0,0,1,1.37,2.11,2.11,0,0,0,.23.19,4.82,4.82,0,0,0,3,.91,12.34,12.34,0,0,0,5.87-1.83c.53-.3,1.08-.63,1.64-1a4.2,4.2,0,0,0,1,1.14l.37.28a7.61,7.61,0,0,0,4.29,1.06h2.1a5.72,5.72,0,0,1,2.49.37,1.33,1.33,0,0,1,.7,1.28,1.79,1.79,0,0,1-1.42,1.7,15.28,15.28,0,0,1-4.72.53L96.2,76a7.83,7.83,0,0,0-2.64.29,2.14,2.14,0,0,0-.94.79,1.86,1.86,0,0,0-.34,1.08,1.56,1.56,0,0,0,.92,1.5,3.1,3.1,0,0,0,.92.29,12.46,12.46,0,0,0,1.6.07l8.73,0a41.74,41.74,0,0,0,4.78-.22A9.56,9.56,0,0,0,112,79a6.55,6.55,0,0,0,2.72-2.23,5.42,5.42,0,0,0,1-3.2,5,5,0,0,0-1.27-3.17,2.76,2.76,0,0,1-.75-1.34,4,4,0,0,1,.45-1.42l.4-.77,2.23-4.39a15.29,15.29,0,0,0,.63-1.55,4.69,4.69,0,0,0,.31-1.19,1.6,1.6,0,0,0-.52-1.29,2.11,2.11,0,0,0-1.41-.44,2.64,2.64,0,0,0-1.62.49,5.34,5.34,0,0,0-1.3,1.7l-.51,1-3.2,6.32a8.7,8.7,0,0,1-2.87.63,2.21,2.21,0,0,1-1.48-.5l-.1-.07a1.78,1.78,0,0,1-.63-1.36A4.85,4.85,0,0,1,105,63.7c.08-.14.18-.28.28-.43a15,15,0,0,1,3-3.07,20,20,0,0,1,8.4-3.72l1.87-.4c1.34-.3,2-.94,2-1.9a1.65,1.65,0,0,0-.66-1.38,2.8,2.8,0,0,0-1.75-.51,18.72,18.72,0,0,0-5.81,1.13,25.12,25.12,0,0,0-6,2.9,21.88,21.88,0,0,0-3,2.44,15.76,15.76,0,0,0-2.22,2.6c-.16.24-.31.49-.45.74a12.26,12.26,0,0,0-1,2c-.09.27-.17.53-.24.79-.28.19-.58.4-.93.66s-.86.61-1.26.88a9.8,9.8,0,0,1-3,1.54,2.11,2.11,0,0,1-.33,0c-.6,0-.89-.28-.9-.84a4.33,4.33,0,0,1,.57-1.63l.85-1.69L98,56.71a5.63,5.63,0,0,0,.77-2.14,1.66,1.66,0,0,0-.64-1.36,2.32,2.32,0,0,0-1.55-.52,2.25,2.25,0,0,0-1.56.53Z"/><path class="cls-1" d="M131.47,46.69a2.88,2.88,0,0,0-.68-.08,3,3,0,0,0-1.52.38,2.63,2.63,0,0,0-.61.44,2.75,2.75,0,0,0-.84,2.13,2.44,2.44,0,0,0,.06.55,2.12,2.12,0,0,0,.64,1.17,2.46,2.46,0,0,0,.7.45,2.88,2.88,0,0,0,1.13.22,3.68,3.68,0,0,0,.9-.14,2.51,2.51,0,0,0,1.26-.75,3.05,3.05,0,0,0,.82-2.17,2.3,2.3,0,0,0-.29-1.1,1.91,1.91,0,0,0-.44-.55A2.35,2.35,0,0,0,131.47,46.69Z"/><path class="cls-1" d="M199.16,60.76c-.54-1.33-1.08-2.53-1.62-3.59q-.89-1.81-1.14-2.52a4.77,4.77,0,0,1-.25-1.42,2.57,2.57,0,0,1,.15-.92l.34-1.11a1.75,1.75,0,0,0,.08-.58,1.73,1.73,0,0,0-.62-1.4,2.46,2.46,0,0,0-1.62-.51,2.57,2.57,0,0,0-1.08.2,2.08,2.08,0,0,0-.78.72,15.67,15.67,0,0,0-1,1.85l-1.88,3.72-1.49,3a5.58,5.58,0,0,0-.77,2.11,1.72,1.72,0,0,0,.62,1.37,2.19,2.19,0,0,0,1.11.51,3.29,3.29,0,0,0,.45,0,2.23,2.23,0,0,0,1.57-.54,8.33,8.33,0,0,0,1.41-2.15l.54-1.05a8.6,8.6,0,0,0,.47,1.42,15.83,15.83,0,0,1,1.56,4.83,3.33,3.33,0,0,1-1,2.46,3.68,3.68,0,0,1-2.68,1,2.82,2.82,0,0,1-2.13-.86,3.77,3.77,0,0,1-.72-1.14l-.06-.12-.43-1.11a1.89,1.89,0,0,0-1.47-1.28,2.76,2.76,0,0,0-.51,0,2.4,2.4,0,0,0-1.79.7.34.34,0,0,0-.06.06l-.1.07c-.37.24-.79.54-1.29.91l-1.19.83A19.83,19.83,0,0,1,180,67.26a4,4,0,0,1-1.44.52,2.48,2.48,0,0,1-.27,0c-.59,0-.89-.28-.89-.84a4.28,4.28,0,0,1,.57-1.63l.88-1.75,6.28-12.43,2.18-4.31.49-1a5.21,5.21,0,0,0,.76-2.13,1.68,1.68,0,0,0-.62-1.37,2.23,2.23,0,0,0-1.07-.48,2.63,2.63,0,0,0-.49,0,2.2,2.2,0,0,0-1.55.52,2.49,2.49,0,0,0-.22.23,10.65,10.65,0,0,0-1.21,1.94L174.57,62l-.94,1.86c-.21.41-.38.78-.53,1.13l-.36.24c-.93.65-1.7,1.17-2.3,1.56l-1,.62a3.46,3.46,0,0,1-1.59.54c-.67,0-1-.31-1-.94a4.89,4.89,0,0,1,.71-1.84c.16-.28.3-.56.45-.83s.28-.54.41-.81l.94-1.81a5.25,5.25,0,0,0,.74-2.13,1.5,1.5,0,0,0-.6-1.22,2.31,2.31,0,0,0-1.52-.49,2.92,2.92,0,0,0-.86.14,2.48,2.48,0,0,0-.88.5,8,8,0,0,0-1.53,2.26l-.88,1.74c-.06.07-.35.66-.86,1.76l-.26.58A17.18,17.18,0,0,1,160,67.29a3.83,3.83,0,0,1-2.14.75,1.49,1.49,0,0,1-.8-.21,1.22,1.22,0,0,1-.33-.27,1.92,1.92,0,0,1-.42-1.3,5.32,5.32,0,0,1,1-2.83c.12-.19.25-.38.39-.58a14.26,14.26,0,0,1,3.71-3.46,19.07,19.07,0,0,1,3.85-2,18.41,18.41,0,0,1,1.94-.63,26.17,26.17,0,0,1,2.72-.61,5.77,5.77,0,0,0,2.28-.72,1.51,1.51,0,0,0,.64-1.33c0-1.27-.87-1.89-2.61-1.89a14.62,14.62,0,0,0-2.87.35l-.12,0a26.24,26.24,0,0,0-3.57,1A22.3,22.3,0,0,0,160.49,55a19.53,19.53,0,0,0-6.63,5.46A14.22,14.22,0,0,0,152.81,62a11.16,11.16,0,0,0-1.19,2.86l-.78.55c-.53.4-1,.73-1.39,1s-.65.45-.9.6a9,9,0,0,1-1.32.71,2.76,2.76,0,0,1-.94.22.79.79,0,0,1-.89-.9,4,4,0,0,1,.65-1.71l1.17-2.15,1.29-2.35A10.54,10.54,0,0,0,150.1,56,3.12,3.12,0,0,0,149,53.5a4.3,4.3,0,0,0-2.89-.94,7.86,7.86,0,0,0-2.78.62,7.71,7.71,0,0,0-2.43,1.42v-.18a1.67,1.67,0,0,0-.61-1.33,2.36,2.36,0,0,0-1.58-.51,2.24,2.24,0,0,0-1.58.56,8.19,8.19,0,0,0-1.4,2.13l-3.36,6.64-1.42,2.81c-.32.21-.67.46-1.07.76-.86.62-1.61,1.12-2.25,1.51a5.57,5.57,0,0,1-2.37,1c-.56,0-.85-.26-.88-.76,0,0,0-.05,0-.08a4.33,4.33,0,0,1,.57-1.63l1.86-3.68,2.59-5.16a5.48,5.48,0,0,0,.77-2.13,1.23,1.23,0,0,0,0-.2,1.65,1.65,0,0,0-.61-1.17,2.09,2.09,0,0,0-.75-.4,2.58,2.58,0,0,0-.8-.12,2.36,2.36,0,0,0-1.39.4,1.09,1.09,0,0,0-.17.13A7.65,7.65,0,0,0,125,55.3L120.59,64a18,18,0,0,0-1,2.5,6.35,6.35,0,0,0-.37,2,4.55,4.55,0,0,0,.1.92,3.54,3.54,0,0,0,1.14,1.91s0,0,0,0a4.33,4.33,0,0,0,1.68.86,5.75,5.75,0,0,0,1.54.19,9.5,9.5,0,0,0,3-.53,14,14,0,0,0,1.8-.74,1.74,1.74,0,0,0,.5.72,2.26,2.26,0,0,0,1.34.52h.22a2.26,2.26,0,0,0,1.57-.51,5.83,5.83,0,0,0,.86-1.19,10.7,10.7,0,0,0,.55-1l3-5.82,2-4a18.44,18.44,0,0,1,3-2,5.84,5.84,0,0,1,2.37-.84c.55,0,.83.25.83.74a10.56,10.56,0,0,1-1.28,2.84c-1.43,2.6-2.33,4.33-2.69,5.21a7.31,7.31,0,0,0-.59,2.53,3.65,3.65,0,0,0,1.28,2.91,4.84,4.84,0,0,0,3.26,1.1,12.16,12.16,0,0,0,5.56-1.73c.54-.29,1.09-.61,1.67-1a4.86,4.86,0,0,0,.9,1.23c.1.1.21.19.32.28a5.63,5.63,0,0,0,3.69,1.17,8,8,0,0,0,2.71-.48A15.58,15.58,0,0,0,162.71,70a2.5,2.5,0,0,0,1.51,2,4.27,4.27,0,0,0,1.74.3,10,10,0,0,0,3.48-.65A15.51,15.51,0,0,0,170.9,71c.52-.26,1.08-.56,1.7-.92a3.61,3.61,0,0,0,.86,1.1,4.29,4.29,0,0,0,.48.36,5,5,0,0,0,2.78.74,12.89,12.89,0,0,0,6.4-2.13h0c.53-.32,1.07-.68,1.63-1.07l0,0a8.18,8.18,0,0,0,.76.8,7.87,7.87,0,0,0,.62.53,8.61,8.61,0,0,0,1.44.87l.14.07a9.32,9.32,0,0,0,8.13-.17,7.82,7.82,0,0,0,3-2.81A7.3,7.3,0,0,0,200,64.47,10.33,10.33,0,0,0,199.16,60.76Z"/></g></g></svg>