<svg xmlns="http://www.w3.org/2000/svg" viewBox="0 0 318.52 382.22"><defs><style>.cls-1{fill:#fff;}</style></defs><title>Asset 1</title><g id="Layer_2" data-name="Layer 2"><g id="Layer_1-2" data-name="Layer 1"><path class="cls-1" d="M69.84,157.08a23.92,23.92,0,0,0-1.39,3.64c.76-1.88,1.57-3.74,2.43-5.56C70.56,155.7,70.21,156.33,69.84,157.08Z"/><path class="cls-1" d="M84.17,372.94a9.89,9.89,0,0,1,.17-1.88,3,3,0,0,0-.42,0,2.46,2.46,0,0,0,0,4.92,2.39,2.39,0,0,0,.7-.12,8.32,8.32,0,0,1-.39-1.86A8.72,8.72,0,0,1,84.17,372.94Z"/><path class="cls-1" d="M191.91,372.94a9.14,9.14,0,0,1,.17-1.88,3,3,0,0,0-.43,0,2.46,2.46,0,0,0,0,4.92,2.28,2.28,0,0,0,.7-.12A9,9,0,0,1,192,374C191.93,373.63,191.91,373.29,191.91,372.94Z"/><path class="cls-1" d="M168.13,18.77s35.58-23.43,65.41.46c0,0,2,2.38,2.51,1.28,0,0-21.2-37.07-76-11.53,0,0-7.82,4-4.58,10.06S168.13,18.77,168.13,18.77Z"/><path class="cls-1" d="M166.45,236.53h.46a13.68,13.68,0,0,1-8.5-2.92l-.17-.16a26.38,26.38,0,0,1-7.59,3.16c.7-.05,1.51-.08,2.45-.08Z"/><path class="cls-1" d="M212.71,160.87a8,8,0,0,0-1.61,3.28,4.62,4.62,0,0,0,1.07-.56,23.47,23.47,0,0,0,3.43-3.15l.2-.46c.94-2,1.32-2.8,1.54-3.18l.31-.62A20.09,20.09,0,0,0,212.71,160.87Z"/><path class="cls-1" d="M147.11,175.82a6,6,0,0,1-2.06-4.63h0a24.11,24.11,0,0,1-3.12,2.68,22.33,22.33,0,0,1-3,1.78,17.69,17.69,0,0,1-3.92,1.4q-2.31,5.22-4.61,10.43l-.15-.05L127.83,193a6.38,6.38,0,0,1,2.6,1.33l.08.07a6,6,0,0,1,2,4.57q0,.28,0,.6a11.47,11.47,0,0,1,3.78,1.5c.29.18.58.37.85.57a9.42,9.42,0,0,1,1.54,1.48c3.79-8.6,7.62-17.18,11.45-25.82A6.51,6.51,0,0,1,147.4,176C147.31,176,147.2,175.9,147.11,175.82Z"/><path class="cls-1" d="M170.09,220.88a6.08,6.08,0,0,0-1.28,2.84c.23.21,1,.23,2.82-.33l3.9-7.81c-.46.32-.89.64-1.32,1A21.08,21.08,0,0,0,170.09,220.88Z"/><path class="cls-1" d="M226.82,27.1a8.39,8.39,0,0,1-1.34,2.17c-.54.7-1.4,1.24-1.8,2a44,44,0,0,0-1.91,4.34c-.18.42-.5,1-.32,1.28,1,1.51-.16,2.69-.77,3.92-4.28,8.68-8.6,17.34-12.89,26l-1.67,3.38c-.56,1.14-1.13,2.28-1.69,3.43q-2.94,6-5.85,12a21.86,21.86,0,0,1-11.17,10.76c-1.11.5-2.21,1-3.32,1.53-2.09,1-4.16,2-6.12,3.14-8.1,4.74-14.29,10.74-17.81,18.92q-5.15,11.91-10.39,23.79a12.57,12.57,0,0,1,1.25,1.91,12.38,12.38,0,0,1,.6,1.39,16.48,16.48,0,0,1,1,5.78c0,.6,0,1.2-.07,1.8l4.77-9.48a15.86,15.86,0,0,1,3-4.38,6.5,6.5,0,0,1,4.28-1.68l.32,0a7.3,7.3,0,0,1,2.79.53c3.54-7.17,7.13-14.32,10.65-21.49,2.27-4.63,6.55-7.94,11-11a6.06,6.06,0,0,1,6.93.66c.83.72-.08,1.22-.69,1.77-2.48,2.22-4.76,4.26-7.14,6.56a15.29,15.29,0,0,0-3.12,3.55q-4.45,9.7-8.83,19.39a9.66,9.66,0,0,1,3,.59,8.4,8.4,0,0,1,1.74.89,7.44,7.44,0,0,1,1.18,1,19.41,19.41,0,0,1,9-2.46,10.09,10.09,0,0,1,6.67,2.26,8,8,0,0,1,3,6.33,14.36,14.36,0,0,1-1,5.3c-.59,1.46-1.92,4.1-4,8.09-.18.32-.34.62-.48.89.52-.37,1.13-.81,1.83-1.33l.36-.26a24.32,24.32,0,0,1,3.83-7.19,34.87,34.87,0,0,1,11.72-9.72,38.18,38.18,0,0,1,5.53-2.47,46,46,0,0,1,6.15-1.79,28.11,28.11,0,0,1,4.83-.64l.61,0a10.5,10.5,0,0,1,2.5.28,13.74,13.74,0,0,0,.5-2,43.74,43.74,0,0,0,.26-13A45.39,45.39,0,0,0,231,113.28a101.26,101.26,0,0,1-3.42-10.91,7.67,7.67,0,0,1,.25-4.37c1.38-3.78,2.86-7.53,4.34-11.28l1.42-3.6.85-2.17.51-1.32q6.27-16.11,12.53-32.2a3.07,3.07,0,0,1,.78-.93,8.57,8.57,0,0,0,1.56-1.57,47.25,47.25,0,0,0,2-4.62,5.92,5.92,0,0,0,.19-1.74,13.39,13.39,0,0,1,.32-3.6c.54-1.48.32-2.61-1.11-3.39h0A29.5,29.5,0,0,0,247,29.75c-5.3-1.81-10.4-4.09-16.14-4.86C228.06,24.51,227.71,24.7,226.82,27.1Zm2.36,8.72c.59-1.33,1.18-2.66,1.81-4.1l2.57.84-2.51,5.67C228.38,38.07,228.25,37.9,229.18,35.82Zm-2.3,5.1c.25-.55.49-1.11.77-1.75a20.46,20.46,0,0,1,3.24,1c-4.7,10.64-9,20.45-13.44,30.36L216,73.94c-.51,1.15-1,2.31-1.54,3.47-2.31,5.21-4.65,10.5-7.08,16-.52,1.37-2.43,3.18-3.78,2.06s.29-4,.29-4q3.54-7.76,7.07-15.52c.53-1.15,1.05-2.3,1.57-3.45s1-2.27,1.55-3.4Z"/><path class="cls-1" d="M234.9,340.73c-.13.14-13,13.45-31.44,13.95h-8.12c.92-4.86-.62-6.65-.62-6.65-1.83-1.11-12.41-3.65-15.16-4.16-2.56-.47-2.74-2.34-2.75-2.6v0l.13-3.76,0-1c0-.75-1-1.46-2.06-1.76l.36-.89.77-1.91a31.87,31.87,0,0,0,7-.24s4-15.91,7.5-29.75c2.36-9.34,4.49-17.73,5-19.63,1.25-4.71-1.5-5.22-1.5-5.22L178.9,269.3,176,267.83l-12.39-6.39a74.45,74.45,0,0,0-20.87-7.32c11.45-1.49,27.91,7,34.54,10.79q6.57-14.88,13.15-29.77a9.24,9.24,0,0,1-.84-.68,8.61,8.61,0,0,1-1.43-1.66,9.29,9.29,0,0,1-1.57-5.3,13.77,13.77,0,0,1,.75-4.19,33.86,33.86,0,0,1,1.87-4.49h0l7.05-14.06a15.24,15.24,0,0,1,2.95-4.41,6.06,6.06,0,0,1,1.62-1.06,7.34,7.34,0,0,1-.39-2.41,7.81,7.81,0,0,1,2.3-5.72,7.6,7.6,0,0,1,4.77-2.17,6.68,6.68,0,0,1,.78,0,8,8,0,0,1,2.37.36q3.12-7.05,6.23-14.12a17.78,17.78,0,0,1-2.68,1.32,13.2,13.2,0,0,1-1.39.44,15.48,15.48,0,0,1-4.06.53,11.71,11.71,0,0,1-8.61-3.27l-.06-.07a32.46,32.46,0,0,1-5.13,2.26,17.45,17.45,0,0,1-5.54,1.08,10.78,10.78,0,0,1-7.24-2.43,9,9,0,0,1-3.06-7,15.58,15.58,0,0,1,1-5.34,59.17,59.17,0,0,1,3.13-6.67l.66-1.2-.58.41-8.15,16.16a15.92,15.92,0,0,1-3,4.38,6.6,6.6,0,0,1-4.6,1.7,6.79,6.79,0,0,1-4.45-1.57l-.1-.08a5.91,5.91,0,0,1-1.84-3q-4,8.89-8,17.78a7.59,7.59,0,0,1,4-1.64,7.56,7.56,0,0,1,5.86,1.75,6.57,6.57,0,0,1,2.19,5.06,8.26,8.26,0,0,1-2.12,5.66,7.32,7.32,0,0,1-3.1,2,6.46,6.46,0,0,1,.15,1.4,11.22,11.22,0,0,1-1.59,4.93l-5.88,11.84c.59-.4,1.28-.88,2.07-1.46l.66-.49c0-.13.07-.26.12-.39a24.21,24.21,0,0,1,2.57-5.14,29.51,29.51,0,0,1,4-4.75,40.51,40.51,0,0,1,5.28-4.29,43.07,43.07,0,0,1,10.22-5,32.07,32.07,0,0,1,10.25-2,7.36,7.36,0,0,1,4.69,1.5,5.93,5.93,0,0,1,2.24,4.73c0,1.41-.51,4.75-5.1,6a6.19,6.19,0,0,1,.71,3,9.22,9.22,0,0,1-.68,3,22.61,22.61,0,0,1-1.2,3l-4.19,8.33-.24.56q.13.2.36.48a11.83,11.83,0,0,1,2.66,6.21c0,.31.05.63.05.94a12.1,12.1,0,0,1-2.22,7,13.77,13.77,0,0,1-2.56,2.77,14.18,14.18,0,0,1-3,1.89,17.91,17.91,0,0,1-5.28,1.49,63.71,63.71,0,0,1-8,.37h-13.9a19.44,19.44,0,0,1-3-.17,7.46,7.46,0,0,1-2.43-.79,5.72,5.72,0,0,1-3.11-5.22,6.56,6.56,0,0,1,3.91-5.92,5.75,5.75,0,0,1,.83-.29c-.54.05-1.08.09-1.61.09a10.41,10.41,0,0,1-7.27-2.6c-.21-.19-.4-.39-.59-.59-.74.33-1.46.62-2.18.89-1,.36-1.9.69-2.8,1-.34.1-.68.17-1,.26-3.54,8.12-7.05,16.27-10.68,24.32-2,4.39-1.69,8.48-.44,12.85.09.33.19.66.32,1.11-6.72-.53-10.77-6.26-8.4-12.12,3.2-7.92,6.4-15.84,9.68-23.74.19-.46.39-.91.58-1.37a18.83,18.83,0,0,1-3.12-.35,12.66,12.66,0,0,1-5-2.14,9.54,9.54,0,0,1-2.17-2.18,8.9,8.9,0,0,1-1.59-3.87q-4.61,10.41-9.2,20.83c-1.44,3.27-3,6.51-4.22,9.83-1.58,4.15.08,8.29,4.12,10.81a25.41,25.41,0,0,0,3,1.63c2.27,1,4.56,2,6.85,3a210.79,210.79,0,0,0,25.06,8.86c2.5.69,5,1.35,7.58,1.93a94.41,94.41,0,0,0,10.31,1.89C143.8,281,138.62,277,136.37,274.72l25.22,12.76,6.26,3.17,2.36,1.19-4,13.69L160.53,325a17.18,17.18,0,0,0,3.19,2.93l-2,5.77a4,4,0,0,0-2.72.63,1.2,1.2,0,0,0-.45,1,17.32,17.32,0,0,0-.92,2.75c-.29,1.14-.54,2.41-.76,3.74a116.74,116.74,0,0,0-1.16,12.94H65.19c-19.12.17-32.74-13.82-32.88-14a3,3,0,0,0-4.35-.07,3.18,3.18,0,0,0-.08,4.44c.63.66,15.33,15.89,36.86,15.89h8.9v1.38h1.9l1.86,5.29a8.82,8.82,0,0,0-2.2,5.83,8.59,8.59,0,1,0,17.17,0,8.82,8.82,0,0,0-3-6.59l.84-.6,3.29-.78L95,362.36h3.16V361h79v1.38h3.16l1.47,3.15,3.29.78.84.6a8.82,8.82,0,0,0-2.95,6.59,8.59,8.59,0,1,0,17.17,0,8.82,8.82,0,0,0-2.2-5.83l1.87-5.29h1.89V361h3.67v-.1c19.91-1.3,33.3-15.16,33.9-15.79a3.18,3.18,0,0,0-.07-4.44A3,3,0,0,0,234.9,340.73Zm-41.18,11.5a1.81,1.81,0,0,1-1.79,1.82H160.28a1.83,1.83,0,0,1,0-3.65h31.65A1.82,1.82,0,0,1,193.72,352.23Zm-21.53-17.59c-1.16-.05-2.81-.19-4.34-.34l-3.44-.36,1.84-4.54a24.22,24.22,0,0,0,7,2.2l-.86,2.47Zm-88.4,44.44a5.6,5.6,0,1,1,5.49-5.6A5.55,5.55,0,0,1,83.79,379.08Zm107.82,0a5.6,5.6,0,1,1,5.5-5.6A5.56,5.56,0,0,1,191.61,379.08Z"/><path class="cls-1" d="M150.85,199.28a7.41,7.41,0,0,1-.37-2.28c-.58,1.27-1.15,2.55-1.73,3.83a5.6,5.6,0,0,1,.48-.49A6.06,6.06,0,0,1,150.85,199.28Z"/><path class="cls-1" d="M118.26,214.69c-.37.82-.73,1.65-1.09,2.47.69-.65,1.45-1.34,2.31-2.1A6.16,6.16,0,0,1,118.26,214.69Z"/><path class="cls-1" d="M114.26,277.21l-.74,1-7,9.24a55.11,55.11,0,0,0-6.81-4.52,145.69,145.69,0,0,0-22-9.79l-1.55,1.29-4.83-2.58.26-.33c1-1-.12-1.52-.12-1.52-1.88-2.93-15.3-11.81-15.3-11.81a2.51,2.51,0,0,0-3.93.4c-1.66,1.35-3.28,2.72-4.84,4.08-1,.87-2,1.73-2.89,2.58s-1.9,1.73-2.8,2.58C33.52,275.45,28,281.71,28,281.71a1.58,1.58,0,0,0,.12,2.26L31,286.64a5.2,5.2,0,0,0,6.63,1c3.57-2.5,9.17-3.81,13.87-4.07a24.56,24.56,0,0,1,4.62.12,8.33,8.33,0,0,1,2.86.79c1.48.8,2.38.79,2.92.51a1.75,1.75,0,0,0,.83-1.28,4.53,4.53,0,0,1,.61-1.29l6,3c-.41,3.07,1,8,1,8s32.65,12,37,15.1,5.76,1.12,5.76,1.12l11-12.16,10.66-11.81.59-.65-1.33-.51C125.34,283,114.26,277.21,114.26,277.21Zm-81,6.13a1.39,1.39,0,0,1-2-.1,1.46,1.46,0,0,1,.09-2l11.73-10.86,2.77-2.57,2.85-2.63,4.59-4.25a1.41,1.41,0,0,1,2,.09,1.47,1.47,0,0,1-.1,2l-5.06,4.69-2.84,2.62-2.75,2.55Zm31.83-3.56c1.32-1.82,2.94-3.89,4.24-5.52l8.82,4.17c-.68,2.34-2.77,4.69-4.16,6.05Z"/><path class="cls-1" d="M30.09,173.71h1.23c1.44,0,2.7,0,3.79-.07.69,0,1.33-.06,1.88-.1a24.56,24.56,0,0,0,3.67-.52,14,14,0,0,0,3.05-1.15,11,11,0,0,0,6.46-10.46,12.82,12.82,0,0,0-.83-4.55,20.23,20.23,0,0,0-2.72-4.75q-1.29-1.71-3.51-4.26c-.72-.82-1.5-1.69-2.36-2.63l-.4-.45a31,31,0,0,1-2.6-3.17c-.26-.38-.49-.74-.67-1.06a7.22,7.22,0,0,1-1-3.44q0-4.53,5.59-8.76a25.38,25.38,0,0,1,4.64-2.8c.74-.35,1.5-.69,2.3-1A27.13,27.13,0,0,1,52,123.47a15.12,15.12,0,0,1,3.61-.51,5.7,5.7,0,0,1,1.23.12,2,2,0,0,1,1.9,2.1,5.41,5.41,0,0,1-.41,1.94c-.28.73-.88,2.06-1.8,4l-1.34,2.82-.79,1.58a5,5,0,0,0-.5,2.09A3,3,0,0,0,55,139.9a4,4,0,0,0,2.75,1A3.63,3.63,0,0,0,60,140.2a8.83,8.83,0,0,0,2-2.67l.7-1.28c1-1.8,2-3.79,2.95-6a15.44,15.44,0,0,0,1.48-5.89A7.22,7.22,0,0,0,65.7,120a9.06,9.06,0,0,0-4-3l-.26-.08a14.44,14.44,0,0,0-4.11-.89c-.57,0-1.16-.08-1.77-.08a25.82,25.82,0,0,0-2.9.19,34.22,34.22,0,0,0-12.42,4.17,30.47,30.47,0,0,0-6.88,5,21.46,21.46,0,0,0-4.34,6,15.23,15.23,0,0,0-1.52,6.6,12.07,12.07,0,0,0,1.38,5.73,41,41,0,0,0,5.16,6.86l.24.27c1,1.09,1.83,2,2.54,2.83,1.22,1.39,2,2.35,2.4,2.85.14.18.26.35.38.52a8.76,8.76,0,0,1,2.07,4.91q0,3.51-4.8,4.15c-.42.05-.86.1-1.34.12-.92,0-1.76.06-2.56.08-1.06,0-2,0-2.89,0H7.15a14.78,14.78,0,0,0-4.8.51A3.58,3.58,0,0,0,0,170.29a3,3,0,0,0,1.71,2.78,10.68,10.68,0,0,0,4.52.64H30.09Z"/><path class="cls-1" d="M80.38,143.49a9.55,9.55,0,0,0-2.43-.92,12.69,12.69,0,0,0-3-.34A14.25,14.25,0,0,0,68.19,144a19.76,19.76,0,0,0-5.93,4.84,24.06,24.06,0,0,0-4.08,6.92,21.63,21.63,0,0,0-1.46,7.78,10.91,10.91,0,0,0,2.82,7.86,9.18,9.18,0,0,0,4.54,2.6,12.39,12.39,0,0,0,2.93.34,14.74,14.74,0,0,0,8.75-3,22.08,22.08,0,0,0,6.79-8,22.63,22.63,0,0,0,2.56-10.42,12.24,12.24,0,0,0-1.23-5.7A8.46,8.46,0,0,0,80.38,143.49ZM65.79,166.34a4,4,0,0,1-.9-2.76,19.22,19.22,0,0,1,2.17-7.9,18.09,18.09,0,0,1,3.39-5.08A5.19,5.19,0,0,1,74,148.93h.06a2.74,2.74,0,0,1,2.25,1,4.54,4.54,0,0,1,.78,2.87,18.34,18.34,0,0,1-2.54,8.63q-3.22,5.93-6.37,5.93a3.25,3.25,0,0,1-2-.61A3.16,3.16,0,0,1,65.79,166.34Z"/><path class="cls-1" d="M103,143.06a3.71,3.71,0,0,0-2.53-.83,3.56,3.56,0,0,0-2.54.89,12.82,12.82,0,0,0-2.26,3.46L85,167.73a9.43,9.43,0,0,0-1.25,3.46,2.85,2.85,0,0,0,1,2.24,3.68,3.68,0,0,0,2.52.87,3.54,3.54,0,0,0,2.51-.83A14.1,14.1,0,0,0,92.08,170l8-15.89a30.23,30.23,0,0,1,4.91-3.31,9.22,9.22,0,0,1,3.81-1.35c.89,0,1.34.4,1.34,1.2q0,.81-2.08,4.61-3.47,6.33-4.34,8.46a12.52,12.52,0,0,0-1,4.1,6,6,0,0,0,2.06,4.74,6.7,6.7,0,0,0,.93.68,7.59,7.59,0,0,0,3,1,11,11,0,0,0,1.31.08c2.79,0,6.06-1.07,9.78-3.23.85-.49,1.74-1.06,2.64-1.66a9.63,9.63,0,0,0,1.42,2c.18.18.36.34.55.51a10,10,0,0,0,6.93,2.43,14.35,14.35,0,0,0,1.61-.1,14.11,14.11,0,0,0,3.75-1,17.59,17.59,0,0,0,3.39-1.92c.39-.28.78-.58,1.15-.9a23.36,23.36,0,0,0,8.19-17.55c0-.3,0-.57,0-.86a11.72,11.72,0,0,0-1.17-4.82v0a8.43,8.43,0,0,0-2.11-2.64,8.21,8.21,0,0,0-1.4-1,11.17,11.17,0,0,0-5.47-1.26,14.21,14.21,0,0,0-6.71,1.73,19.76,19.76,0,0,0-5.93,4.84,23.86,23.86,0,0,0-4.09,6.92,22.13,22.13,0,0,0-.76,2.44,21.6,21.6,0,0,0-.64,4.14l-1.21.86c-.71.53-1.34,1-1.91,1.39s-1.3.91-1.78,1.21a15.56,15.56,0,0,1-2.12,1.16,4.21,4.21,0,0,1-1.53.34,1.28,1.28,0,0,1-1.43-1.45,7,7,0,0,1,1.07-2.78l1.89-3.5,2.07-3.81q2.6-4.69,2.59-7.9a5.1,5.1,0,0,0-1.78-4.06,6.85,6.85,0,0,0-4.64-1.53,12.24,12.24,0,0,0-4.47,1,12.54,12.54,0,0,0-3.93,2.3v-.29A2.69,2.69,0,0,0,103,143.06Zm38.14,12.77a22.11,22.11,0,0,1-2.18,5.58c-.37.67-.74,1.27-1.1,1.83-1.78,2.72-3.54,4.1-5.27,4.1a3.12,3.12,0,0,1-2.24-.84,1.37,1.37,0,0,1-.18-.16,4,4,0,0,1-.9-2.76,14.53,14.53,0,0,1,.7-4.15,28.53,28.53,0,0,1,1.47-3.75,17.68,17.68,0,0,1,3.39-5.08,5.15,5.15,0,0,1,3.57-1.67,2.78,2.78,0,0,1,2.31,1,4.48,4.48,0,0,1,.79,2.87A13.7,13.7,0,0,1,141.15,155.83Z"/><path class="cls-1" d="M183.09,163.8a12.42,12.42,0,0,0-.83,4.23,5.75,5.75,0,0,0,2,4.59,7.8,7.8,0,0,0,5.24,1.68,14.89,14.89,0,0,0,4.57-.91,30.19,30.19,0,0,0,4.22-1.82q.6-.31,1.2-.66c.51-.29,1-.6,1.5-.92a7.25,7.25,0,0,0,1.41,1.94,5.47,5.47,0,0,0,.57.51,9,9,0,0,0,5.87,1.86,12.14,12.14,0,0,0,4.36-.76,14.44,14.44,0,0,0,1.52-.72,32.46,32.46,0,0,0,3.53-2.23,5.7,5.7,0,0,0,.3,1,3.89,3.89,0,0,0,2.3,2.26,7,7,0,0,0,2.62.44,15.81,15.81,0,0,0,5.61-1,42.15,42.15,0,0,0,7.13-3.78q5.76-3.67,5.77-6.28a2.38,2.38,0,0,0-.95-1.86,3.22,3.22,0,0,0-2.14-.79,3.19,3.19,0,0,0-1.55.39c-.48.25-1.45.89-2.93,1.92-2.52,1.76-4.3,2.94-5.33,3.52a5.51,5.51,0,0,1-2.56.88c-1.08,0-1.62-.52-1.62-1.54a8,8,0,0,1,1.15-3c.25-.46.49-.9.72-1.35l.67-1.3,1.52-3a8.86,8.86,0,0,0,1.2-3.46,2.54,2.54,0,0,0-.1-.68,2.43,2.43,0,0,0-.87-1.3,3.4,3.4,0,0,0-1.54-.7,5.18,5.18,0,0,0-.9-.09,4,4,0,0,0-2.8,1,0,0,0,0,1,0,0,13.41,13.41,0,0,0-2.44,3.66L220,158.42c-.09.11-.55,1.06-1.38,2.86l-.42.94a27.15,27.15,0,0,1-4.31,4,6.14,6.14,0,0,1-3.44,1.22,2.35,2.35,0,0,1-1.32-.37,2,2,0,0,1-.5-.42,3.15,3.15,0,0,1-.67-2.12,8.91,8.91,0,0,1,1.64-4.65c.19-.29.38-.58.6-.88a23.43,23.43,0,0,1,6-5.62,31.55,31.55,0,0,1,6.21-3.31c.85-.33,1.77-.63,2.74-.9,1.14-.33,2.37-.62,3.67-.88l1.09-.2a14.21,14.21,0,0,0,2.58-.64,4.8,4.8,0,0,0,1.09-.54,2.49,2.49,0,0,0,1-2.15,2.85,2.85,0,0,0-2.92-3,8.32,8.32,0,0,0-1.28-.1,19.09,19.09,0,0,0-2,.13c-.85.1-1.77.25-2.77.47a43.35,43.35,0,0,0-5.75,1.66,36.71,36.71,0,0,0-5.14,2.31A31.66,31.66,0,0,0,204,155.08a26.65,26.65,0,0,0-1.65,2.48,17.48,17.48,0,0,0-2,4.72l-1.21.88c-.85.63-1.61,1.18-2.28,1.64a28,28,0,0,1-2.43,1.58,5.35,5.35,0,0,1-2.58.83,1.39,1.39,0,0,1-1-.44,1.43,1.43,0,0,1-.44-1,3.57,3.57,0,0,1,.35-1.45c.23-.51,1.07-2.11,2.51-4.78q3.09-5.78,3.9-7.78a10.85,10.85,0,0,0,.81-4.1,4.87,4.87,0,0,0-1.85-3.89,7.12,7.12,0,0,0-4.7-1.53q-4.71,0-10.07,3.58a4.29,4.29,0,0,0-1.84-2.62,5.4,5.4,0,0,0-1.35-.63,7.44,7.44,0,0,0-2.25-.33c-.3,0-.61,0-.93.05a12.07,12.07,0,0,0-3.86,1.22,21.23,21.23,0,0,0-2.78,1.63.5.5,0,0,1,0-.12,3.08,3.08,0,0,0-1-2,3,3,0,0,0-1.07-.57,4.65,4.65,0,0,0-1.4-.19,3.73,3.73,0,0,0-2.17.61,3,3,0,0,0-.34.26,13.4,13.4,0,0,0-2.29,3.48L149.4,167.77a9.33,9.33,0,0,0-1.25,3.42,2.92,2.92,0,0,0,1,2.24,3.62,3.62,0,0,0,2.32.86h.19a3.57,3.57,0,0,0,2.52-.87,13.33,13.33,0,0,0,2.28-3.48l1.9-3.77,6.09-12.08.23-.17c1-.75,1.85-1.4,2.66-2a16,16,0,0,1,4.36-2.33,3.38,3.38,0,0,1,.87-.15c.74,0,1.11.33,1.11,1a13,13,0,0,1-1.48,3.8l-6.83,13.5a9.52,9.52,0,0,0-1.2,3.42,3,3,0,0,0,.45,1.6,3.22,3.22,0,0,0,.54.64,3.68,3.68,0,0,0,2.52.87,3.57,3.57,0,0,0,2.51-.87,13.55,13.55,0,0,0,2.29-3.48L181,153.12q4.8-3.63,7.11-3.63a1.25,1.25,0,0,1,.87.28.82.82,0,0,1,.33.66c0,.85-1.08,3.22-3.23,7.09A56.26,56.26,0,0,0,183.09,163.8Z"/><path class="cls-1" d="M68.08,203.6a30.32,30.32,0,0,0-3.77,14.2,17.61,17.61,0,0,0,2,8.57A13.36,13.36,0,0,0,72,232a18.72,18.72,0,0,0,8.77,1.95q11.63,0,22.13-9.91a50,50,0,0,0,7.73-9.21,47.51,47.51,0,0,0,3.74-6.91c.51-1.19,1-2.38,1.4-3.59.06-.17.11-.33.16-.5a32,32,0,0,0,1.65-9.69,21.58,21.58,0,0,0-1.26-7.52,17.1,17.1,0,0,0-3.63-5.92,15.36,15.36,0,0,0-4.73-3.35c-.31-.15-.62-.3-.94-.43a18.1,18.1,0,0,0-2.47-.74,21.42,21.42,0,0,0-4.76-.54,16.79,16.79,0,0,0-7.33,1.33c-1.82.88-2.72,2.09-2.72,3.63a3,3,0,0,0,.89,2.17,2.8,2.8,0,0,0,2.12.94,11.11,11.11,0,0,0,2.24-.25,20.92,20.92,0,0,1,4.62-.6,9.56,9.56,0,0,1,7.29,2.86,10.87,10.87,0,0,1,2.72,7.82A29.19,29.19,0,0,1,107.13,205a43.75,43.75,0,0,1-6.79,11A37,37,0,0,1,91,224a19.09,19.09,0,0,1-9.74,3,8.48,8.48,0,0,1-6.54-2.78,10.07,10.07,0,0,1-2.56-7.09,21.54,21.54,0,0,1,1.51-7.22,32.07,32.07,0,0,1,4-7.56,31.47,31.47,0,0,1,3.27-4A35.82,35.82,0,0,1,84.68,195a43.58,43.58,0,0,1,4.91-3.24,10.89,10.89,0,0,0,2.63-1.92,2.76,2.76,0,0,0,.71-1.84,2.57,2.57,0,0,0-1-2.24,5.78,5.78,0,0,0-3.27-.71H64.58a19.06,19.06,0,0,0-2.76.16,5.15,5.15,0,0,0-1.4.35,3.35,3.35,0,0,0-1.62,1.31,3.43,3.43,0,0,0-.62,1.94,2.6,2.6,0,0,0,1.26,2.44,5.73,5.73,0,0,0,1.63.55,16.81,16.81,0,0,0,2.64.26h14A33.84,33.84,0,0,0,68.08,203.6Z"/><path class="cls-1" d="M157.58,200.76a4.46,4.46,0,0,0,3.45-1.43,5,5,0,0,0,1.3-3.52,3.43,3.43,0,0,0-1.14-2.69,4.12,4.12,0,0,0-2.88-1,4.79,4.79,0,0,0-3.41,1.32,4.68,4.68,0,0,0-1.34,3.46,4.39,4.39,0,0,0,0,.53,3.6,3.6,0,0,0,1.08,2.27A4,4,0,0,0,157.58,200.76Z"/><path class="cls-1" d="M151.17,202.81a14.29,14.29,0,0,0-2.14,3.38l-5.5,11L142,220.24c-.24.48-.45.93-.65,1.38l-.72.41c-.64.38-1.28.73-1.92,1.08s-1,.52-1.5.77q-1.37.69-2.73,1.29c-.6.26-1.2.51-1.81.75l-.73.28a23.83,23.83,0,0,1-3.75,1.11,8.55,8.55,0,0,1-1.69.19,2.89,2.89,0,0,1-1.51-.36l-.18-.11a1.49,1.49,0,0,1-.64-1.28q0-1.37,2.83-3.76l.3-.26,3.31-2.86c.72-.62,1.38-1.21,2-1.78a26.25,26.25,0,0,0,3.5-3.81,7.74,7.74,0,0,0,1.53-4.49,6,6,0,0,0-.42-2.23,5.76,5.76,0,0,0-1.89-2.4c-.08-.07-.18-.12-.26-.19a10,10,0,0,0-5.84-1.59,9.61,9.61,0,0,0-1,.05l.13-.3a8.22,8.22,0,0,0,1.1-3.16,2.86,2.86,0,0,0-.35-1.41,2.76,2.76,0,0,0-.65-.81,3.58,3.58,0,0,0-1.92-.82,4.91,4.91,0,0,0-.55,0,3.55,3.55,0,0,0-2.47.83,10.12,10.12,0,0,0-1.69,2.41c-.19.34-.39.71-.6,1.12l-2.4,4.75-.25.5a10.79,10.79,0,0,0-1.17,3.24c0,.06,0,.13,0,.18s0,.14,0,.22a2.82,2.82,0,0,0,1,2,3.41,3.41,0,0,0,1.15.67,4.15,4.15,0,0,0,1.35.21,3.75,3.75,0,0,0,2.12-.62,2.08,2.08,0,0,0,.34-.24,8.56,8.56,0,0,0,2-2.9,7.53,7.53,0,0,1,2.79.43,1.37,1.37,0,0,1,.82,1.36,2.21,2.21,0,0,1-.61,1.5c-.42.45-1.67,1.55-3.78,3.29s-3.64,3.11-5,4.32c-.64.59-1.2,1.13-1.68,1.61a8.87,8.87,0,0,0-2.78,6,6.91,6.91,0,0,0,.26,1.92,6.19,6.19,0,0,0,2.36,3.3,10.13,10.13,0,0,0,4.48,1.71,17.88,17.88,0,0,0,2.72.21l.47,0a27.93,27.93,0,0,0,3.39-.26c.7-.1,1.41-.22,2.13-.37s1.51-.35,2.27-.57c.48-.14,1-.32,1.48-.49.86-.29,1.74-.62,2.65-1l1.35-.61c.48-.23,1-.45,1.46-.7a5.64,5.64,0,0,0,1.54,2.23l.37.31a7.59,7.59,0,0,0,4.84,1.49,19.43,19.43,0,0,0,9.36-2.94c.85-.49,1.72-1,2.62-1.63a7,7,0,0,0,1.53,1.86c.19.16.4.31.6.45a11.85,11.85,0,0,0,6.83,1.75h3.34a9.17,9.17,0,0,1,4,.59,2.19,2.19,0,0,1,1.09,2.1c0,1.28-.75,2.2-2.26,2.75a23.82,23.82,0,0,1-7.52.84H153.1a12.34,12.34,0,0,0-4.21.46,3.46,3.46,0,0,0-1.51,1.29,3.23,3.23,0,0,0-.54,1.75,2.55,2.55,0,0,0,1.46,2.43,4.4,4.4,0,0,0,1.46.47,17.58,17.58,0,0,0,2.56.13h13.9a61.71,61.71,0,0,0,7.61-.34,14.75,14.75,0,0,0,4.42-1.24,10.63,10.63,0,0,0,4.34-3.61,8.89,8.89,0,0,0,1.65-5.19,8.36,8.36,0,0,0-2-5.17,4.47,4.47,0,0,1-1.19-2.18,6.42,6.42,0,0,1,.74-2.3l.64-1.24L186,217.8a22.75,22.75,0,0,0,1-2.52,7.75,7.75,0,0,0,.5-1.92,2.63,2.63,0,0,0-.82-2.09,3.25,3.25,0,0,0-2.24-.73,4.18,4.18,0,0,0-2.59.79,8.85,8.85,0,0,0-2.08,2.76l-.82,1.62L173.81,226a13.48,13.48,0,0,1-4.57,1,3.55,3.55,0,0,1-2.36-.82,1.67,1.67,0,0,0-.16-.12,3,3,0,0,1-1-2.22,7.91,7.91,0,0,1,1.39-4.07c.14-.23.3-.46.46-.7a23.93,23.93,0,0,1,4.73-5,31.26,31.26,0,0,1,13.4-6l3-.65c2.13-.48,3.2-1.51,3.2-3.07a2.7,2.7,0,0,0-1.05-2.24,4.34,4.34,0,0,0-2.79-.84,29.1,29.1,0,0,0-9.26,1.82,39.78,39.78,0,0,0-9.49,4.68,37.17,37.17,0,0,0-4.87,3.95,26,26,0,0,0-3.54,4.23c-.26.39-.5.78-.72,1.18a20.63,20.63,0,0,0-1.52,3.28c-.15.43-.28.85-.39,1.27-.45.31-.93.66-1.48,1.08-.72.53-1.38,1-2,1.41a15.71,15.71,0,0,1-4.83,2.5,2.59,2.59,0,0,1-.52.06c-1,0-1.42-.45-1.42-1.36a7,7,0,0,1,.91-2.65l1.36-2.74L156,208.36a9,9,0,0,0,1.23-3.46,2.78,2.78,0,0,0-1-2.22,3.67,3.67,0,0,0-2.47-.85,3.57,3.57,0,0,0-2.49.85Z"/><path class="cls-1" d="M209.41,192.22a4.63,4.63,0,0,0-1.08-.13,5,5,0,0,0-2.43.61,4.79,4.79,0,0,0-1,.71,4.65,4.65,0,0,0-1.35,3.46,4.35,4.35,0,0,0,.1.9,3.61,3.61,0,0,0,2.13,2.63,4.48,4.48,0,0,0,1.8.36,5,5,0,0,0,1.43-.21,4.18,4.18,0,0,0,2-1.22,5,5,0,0,0,1.3-3.52,3.71,3.71,0,0,0-.44-1.79,3.17,3.17,0,0,0-.7-.9A3.84,3.84,0,0,0,209.41,192.22Z"/><path class="cls-1" d="M317.19,215.37c-.85-2.16-1.71-4.12-2.56-5.85a42.39,42.39,0,0,1-1.8-4.1,7.18,7.18,0,0,1-.39-2.31,4.3,4.3,0,0,1,.23-1.5l.54-1.79a2.42,2.42,0,0,0,.14-.94,2.83,2.83,0,0,0-1-2.28,3.85,3.85,0,0,0-2.58-.84,4,4,0,0,0-1.72.32,3.54,3.54,0,0,0-1.26,1.18,26.29,26.29,0,0,0-1.64,3l-3,6-2.39,4.81a9.4,9.4,0,0,0-1.23,3.41,2.89,2.89,0,0,0,1,2.25,3.46,3.46,0,0,0,1.77.82,4.21,4.21,0,0,0,.72,0,3.5,3.5,0,0,0,2.49-.87,13.73,13.73,0,0,0,2.27-3.48l.87-1.71a12.77,12.77,0,0,0,.73,2.3c1.64,3.91,2.47,6.53,2.47,7.86a5.42,5.42,0,0,1-1.67,4,5.88,5.88,0,0,1-4.28,1.64,4.4,4.4,0,0,1-3.38-1.4,6.07,6.07,0,0,1-1.15-1.86c0-.07-.06-.13-.08-.2l-.69-1.79a3.05,3.05,0,0,0-2.34-2.09,3.53,3.53,0,0,0-.81-.09,3.86,3.86,0,0,0-2.86,1.13.48.48,0,0,0-.09.11l-.16.11c-.59.38-1.26.87-2.06,1.47s-1.32.94-1.9,1.34c-1.12.77-2.05,1.37-2.74,1.76a6.46,6.46,0,0,1-2.3.83,3.13,3.13,0,0,1-.42,0c-1,0-1.42-.45-1.42-1.36a7,7,0,0,1,.91-2.65l1.41-2.83,10.06-20.19,3.48-7,.78-1.57a8.66,8.66,0,0,0,1.24-3.46,2.8,2.8,0,0,0-1-2.22,3.34,3.34,0,0,0-1.71-.79,4.92,4.92,0,0,0-.78-.07,3.52,3.52,0,0,0-2.47.84,4.27,4.27,0,0,0-.35.37,17.22,17.22,0,0,0-1.93,3.15L278,217.21l-1.52,3c-.32.66-.6,1.25-.84,1.82l-.58.4q-2.24,1.57-3.67,2.52c-.66.43-1.2.77-1.61,1a5.41,5.41,0,0,1-2.54.88c-1.06,0-1.6-.51-1.6-1.54a8.08,8.08,0,0,1,1.15-3l.71-1.34c.22-.44.45-.88.66-1.31l1.51-2.94a9,9,0,0,0,1.19-3.46,2.48,2.48,0,0,0-1-2,3.68,3.68,0,0,0-2.43-.79,4.37,4.37,0,0,0-1.37.22,3.88,3.88,0,0,0-1.39.8,13,13,0,0,0-2.45,3.68L260.86,218c-.09.11-.55,1.07-1.37,2.86l-.41.94a27.2,27.2,0,0,1-4.27,4A6,6,0,0,1,251.4,227a2.38,2.38,0,0,1-1.27-.34,2.09,2.09,0,0,1-.54-.45,3.19,3.19,0,0,1-.66-2.11,8.82,8.82,0,0,1,1.59-4.59c.19-.31.4-.63.63-.95a23.31,23.31,0,0,1,5.92-5.61,30.6,30.6,0,0,1,6.15-3.31,29.26,29.26,0,0,1,3.08-1,43.24,43.24,0,0,1,4.35-1,9,9,0,0,0,3.63-1.17,2.5,2.5,0,0,0,1-2.16q0-3.07-4.16-3.08a23.11,23.11,0,0,0-4.57.56l-.18,0a41.36,41.36,0,0,0-5.7,1.67,35.36,35.36,0,0,0-5.09,2.3A31.49,31.49,0,0,0,245,214.69a25.75,25.75,0,0,0-1.68,2.53,18.32,18.32,0,0,0-1.9,4.65l-1.24.89c-.85.64-1.59,1.18-2.23,1.64s-1,.71-1.43,1a14.73,14.73,0,0,1-2.1,1.15,3.92,3.92,0,0,1-1.51.34,1.27,1.27,0,0,1-1.42-1.45,7,7,0,0,1,1.05-2.78l1.88-3.5,2.05-3.8c1.71-3.14,2.56-5.77,2.56-7.91a5.08,5.08,0,0,0-1.76-4,6.69,6.69,0,0,0-4.59-1.54,12.31,12.31,0,0,0-4.44,1,12.44,12.44,0,0,0-3.88,2.31v-.3a2.74,2.74,0,0,0-1-2.16,3.73,3.73,0,0,0-2.52-.83,3.57,3.57,0,0,0-2.51.89,13,13,0,0,0-2.24,3.47L210.77,217l-2.28,4.56c-.5.34-1.07.75-1.71,1.24q-2,1.5-3.59,2.43a8.62,8.62,0,0,1-3.78,1.54A1.2,1.2,0,0,1,198,225.5a.59.59,0,0,1,0-.13,7,7,0,0,1,.91-2.65l3-6,4.16-8.38a8.87,8.87,0,0,0,1.24-3.46c0-.11,0-.21,0-.32a2.73,2.73,0,0,0-1-1.9,3.56,3.56,0,0,0-1.19-.66,4.35,4.35,0,0,0-1.28-.19,3.62,3.62,0,0,0-2.21.65l-.28.2a13,13,0,0,0-2.26,3.51l-7,14.05a29.52,29.52,0,0,0-1.69,4.06,10.5,10.5,0,0,0-.6,3.2,7.26,7.26,0,0,0,.16,1.5,5.79,5.79,0,0,0,1.81,3.11.27.27,0,0,0,.08.07,6.49,6.49,0,0,0,2.67,1.42,9.52,9.52,0,0,0,2.46.31,15.16,15.16,0,0,0,4.78-.84,23.46,23.46,0,0,0,2.87-1.2,2.74,2.74,0,0,0,.79,1.16,3.48,3.48,0,0,0,2.13.85c.12,0,.23,0,.36,0a3.51,3.51,0,0,0,2.49-.84,8.63,8.63,0,0,0,1.39-1.91c.27-.47.56-1,.87-1.61l4.73-9.45,3.23-6.44a30.15,30.15,0,0,1,4.87-3.31,9.05,9.05,0,0,1,3.77-1.35c.88,0,1.33.4,1.33,1.2q0,.81-2.06,4.61-3.44,6.33-4.3,8.46a12.51,12.51,0,0,0-1,4.1,6,6,0,0,0,2,4.74,7.56,7.56,0,0,0,5.19,1.8c2.56,0,5.52-.94,8.86-2.78.87-.47,1.75-1,2.67-1.59a7.86,7.86,0,0,0,1.43,2l.52.46a8.79,8.79,0,0,0,5.86,1.91,11.89,11.89,0,0,0,4.32-.77,23.87,23.87,0,0,0,5-2.95,4.07,4.07,0,0,0,2.4,3.22,6.86,6.86,0,0,0,2.77.5,15.51,15.51,0,0,0,5.55-1,23.4,23.4,0,0,0,2.32-1.05c.84-.42,1.74-.9,2.72-1.49a5.87,5.87,0,0,0,1.36,1.79,6.28,6.28,0,0,0,.77.59,7.83,7.83,0,0,0,4.42,1.21q4.56,0,10.21-3.43l0,0c.85-.51,1.71-1.1,2.59-1.72l.05.06a13.66,13.66,0,0,0,2.2,2.18,13.49,13.49,0,0,0,2.3,1.42l.21.12a14.6,14.6,0,0,0,13-.26,12.3,12.3,0,0,0,4.83-4.55,12,12,0,0,0,1.76-6.32A17.12,17.12,0,0,0,317.19,215.37Z"/></g></g></svg>